<svg width="18" height="18" viewBox="0 0 18 18" fill="none" xmlns="http://www.w3.org/2000/svg">
<circle cx="9" cy="9" r="9" fill="#7F7FE6"/>
<circle cx="9" cy="9" r="6.75" fill="white"/>
<path d="M10.6465 11.0527C10.6465 10.6934 10.5195 10.3906 10.2656 10.1445C10.0156 9.89844 9.5918 9.67578 8.99414 9.47656C8.16211 9.22266 7.55469 8.89258 7.17188 8.48633C6.79297 8.07617 6.60352 7.55664 6.60352 6.92773C6.60352 6.28711 6.78906 5.76172 7.16016 5.35156C7.53516 4.94141 8.04883 4.69727 8.70117 4.61914V3.33594H9.57422V4.625C10.2305 4.71484 10.7402 4.99023 11.1035 5.45117C11.4707 5.91211 11.6543 6.54297 11.6543 7.34375H10.5762C10.5762 6.79297 10.4453 6.35547 10.1836 6.03125C9.92188 5.70703 9.56836 5.54492 9.12305 5.54492C8.6582 5.54492 8.30273 5.66602 8.05664 5.9082C7.81055 6.14648 7.6875 6.48047 7.6875 6.91016C7.6875 7.30859 7.81641 7.62695 8.07422 7.86523C8.33594 8.09961 8.76367 8.31445 9.35742 8.50977C9.95508 8.70117 10.4199 8.91406 10.752 9.14844C11.0879 9.37891 11.334 9.64844 11.4902 9.95703C11.6504 10.2656 11.7305 10.627 11.7305 11.041C11.7305 11.7012 11.5312 12.2324 11.1328 12.6348C10.7383 13.0371 10.1836 13.2754 9.46875 13.3496V14.4688H8.60156V13.3496C7.875 13.2832 7.30469 13.0254 6.89062 12.5762C6.48047 12.123 6.27539 11.5098 6.27539 10.7363H7.35938C7.35938 11.2793 7.50195 11.6973 7.78711 11.9902C8.07227 12.2832 8.47656 12.4297 9 12.4297C9.51172 12.4297 9.91406 12.3066 10.207 12.0605C10.5 11.8145 10.6465 11.4785 10.6465 11.0527Z" fill="#7F7FE6"/>
</svg>
